<mxfile host="app.diagrams.net" agent="Mozilla/5.0 (Windows NT 10.0; Win64; x64) AppleWebKit/537.36 (KHTML, like Gecko) Chrome/131.0.0.0 Safari/537.36" version="26.0.4">
  <diagram name="PÃ¡gina-1" id="oIQiIi_yZHLv0YWkudv6">
    <mxGraphModel dx="538" dy="759" grid="1" gridSize="10" guides="1" tooltips="1" connect="1" arrows="1" fold="1" page="1" pageScale="1" pageWidth="1169" pageHeight="827" math="0" shadow="0">
      <root>
        <mxCell id="0" />
        <mxCell id="1" parent="0" />
        <mxCell id="tE0m3H5MtSQQl2QSymbu-1" value="Patient" style="rounded=0;whiteSpace=wrap;html=1;" vertex="1" parent="1">
          <mxGeometry x="50" y="190" width="60" height="50" as="geometry" />
        </mxCell>
        <mxCell id="tE0m3H5MtSQQl2QSymbu-2" value="Data form global database" style="ellipse;shape=cloud;whiteSpace=wrap;html=1;" vertex="1" parent="1">
          <mxGeometry x="20" y="300" width="120" height="80" as="geometry" />
        </mxCell>
        <mxCell id="tE0m3H5MtSQQl2QSymbu-3" value="Admission" style="text;html=1;align=center;verticalAlign=middle;whiteSpace=wrap;rounded=0;" vertex="1" parent="1">
          <mxGeometry x="40" y="10" width="80" height="30" as="geometry" />
        </mxCell>
        <mxCell id="tE0m3H5MtSQQl2QSymbu-5" value="Triage" style="text;html=1;align=center;verticalAlign=middle;whiteSpace=wrap;rounded=0;" vertex="1" parent="1">
          <mxGeometry x="220" y="10" width="80" height="30" as="geometry" />
        </mxCell>
      </root>
    </mxGraphModel>
  </diagram>
</mxfile>
